<svg enable-background="new 0 0 512 512" viewBox="0 0 512 512" xmlns="http://www.w3.org/2000/svg"><path d="m8.084 333.66v-75.342c0-136.719 110.995-247.55 247.916-247.55 136.92 0 247.916 110.832 247.916 247.55v199.819c0 28.911-27.97 49.605-55.669 41.187l-409.6-124.477c-18.155-5.518-30.563-22.238-30.563-41.187z" fill="#007dbc"/><path d="m503.916 258.318v199.819c0 28.911-27.97 49.605-55.669 41.187l-259.874-78.976c-25.498-42.686-40.162-92.573-40.162-145.885 0-113.615 66.534-211.705 162.814-257.566 110.436 24.991 192.891 123.587 192.891 241.421z" fill="#1a6399"/><path d="m319.917 182.976h171.535c8.078 24.429 12.464 50.535 12.464 77.667v126.832h-159.037c-20.388 0-37.99-14.261-42.191-34.183l-24.962-118.394c-5.642-26.759 14.805-51.922 42.191-51.922z" fill="#91cec5"/><path d="m349.735 88.458c-1.994 3.989-6.848 5.61-10.844 3.62-25.871-12.889-53.76-19.423-82.891-19.423-102.526 0-185.937 83.288-185.937 185.663 0 28.989 6.501 56.75 19.323 82.512 1.987 3.993.357 8.838-3.641 10.821-1.155.573-2.383.845-3.592.845-2.973 0-5.834-1.643-7.246-4.481-13.944-28.014-21.014-58.192-21.014-89.697.002-111.278 90.666-201.808 202.107-201.808 31.659 0 61.977 7.105 90.11 21.121 3.994 1.99 5.618 6.838 3.625 10.827zm52.23 30.277c-.579-.604-1.163-1.204-1.749-1.801-3.127-3.182-8.246-3.228-11.432-.106-3.186 3.123-3.234 8.234-.106 11.415.539.549 1.076 1.101 1.608 1.656 1.588 1.656 3.712 2.49 5.84 2.49 2.01 0 4.023-.744 5.59-2.241 3.225-3.083 3.336-8.193.249-11.413zm-71.209 127.237c-.876-4.371-5.134-7.204-9.512-6.333-4.378.874-7.218 5.128-6.342 9.498l19.402 96.868c.769 3.837 4.145 6.491 7.919 6.491.525 0 1.059-.052 1.594-.158 4.378-.874 7.218-5.128 6.342-9.498zm-10.082-21.558c4.465 0 8.084-3.614 8.084-8.072v-1.077c0-4.458-3.62-8.072-8.084-8.072s-8.084 3.614-8.084 8.072v1.077c-.001 4.458 3.619 8.072 8.084 8.072z" fill="#fff"/><path d="m218.274 215.266c-14.883 0-26.947-12.047-26.947-26.907 0-14.861 12.065-26.907 26.947-26.907s26.947 12.047 26.947 26.907-12.065 26.907-26.947 26.907zm10.779 32.289c-8.929 0-16.168 7.227-16.168 16.145 0 8.916 7.239 16.145 16.168 16.145s16.168-7.228 16.168-16.145-7.239-16.145-16.168-16.145z" fill="#002e35"/><path d="m503.916 260.643v126.832h-75.453l-32.337-204.499h95.326c8.078 24.43 12.464 50.535 12.464 77.667z" fill="#aee5df"/><path d="m437.019 77.565c-48.352-48.281-112.64-74.871-181.019-74.871s-132.667 26.59-181.019 74.871-74.981 112.473-74.981 180.753v75.342c0 22.658 14.585 42.314 36.293 48.911l409.6 124.477c4.978 1.512 10.042 2.258 15.059 2.258 10.783 0 21.343-3.442 30.33-10.09 13.166-9.743 20.718-24.715 20.718-41.079v-199.819c0-68.28-26.628-132.472-74.981-180.753zm58.813 180.753v121.085h-150.953c-16.47 0-30.887-11.681-34.28-27.773l-24.962-118.394c-2.185-10.364.395-21.023 7.077-29.248 6.682-8.223 16.597-12.94 27.203-12.94h166.269c6.267 21.351 9.646 43.923 9.646 67.27zm-14.176 227.925c-9.008 6.665-20.327 8.62-31.056 5.359l-409.6-124.477c-14.852-4.514-24.831-17.962-24.831-33.465v-75.342c-.001-132.049 107.587-239.479 239.831-239.479 102.877 0 190.823 65.021 224.813 156.065h-160.896c-15.5 0-29.991 6.893-39.758 18.912-9.767 12.02-13.537 27.599-10.343 42.745l24.962 118.394c4.959 23.52 26.03 40.591 50.102 40.591h150.953v16.614c-.844-.299-1.748-.469-2.695-.469h-21.558c-4.465 0-8.084 3.614-8.084 8.072s3.62 8.072 8.084 8.072h21.558c.946 0 1.851-.17 2.695-.469v30.77c-.001 11.197-5.168 21.441-14.177 28.107zm-263.382-332.866c-19.316 0-35.032 15.692-35.032 34.98s15.716 34.98 35.032 34.98 35.032-15.692 35.032-34.98-15.716-34.98-35.032-34.98zm0 53.816c-10.401 0-18.863-8.45-18.863-18.835s8.463-18.835 18.863-18.835c10.401 0 18.863 8.45 18.863 18.835s-8.463 18.835-18.863 18.835zm10.779 32.289c-13.373 0-24.253 10.864-24.253 24.217s10.879 24.217 24.253 24.217c13.373 0 24.253-10.864 24.253-24.217-.001-13.353-10.88-24.217-24.253-24.217zm0 32.289c-4.458 0-8.084-3.621-8.084-8.072s3.626-8.072 8.084-8.072 8.084 3.621 8.084 8.072c0 4.452-3.626 8.072-8.084 8.072z"/></svg>