<svg height="64" preserveAspectRatio="none" viewBox="0 0 64 64" width="64" xmlns="http://www.w3.org/2000/svg" xmlns:xlink="http://www.w3.org/1999/xlink"><radialGradient id="a" cx="52.839844" cy="9.741211" gradientTransform="matrix(1.6071999 -.0935 .0115872 .1992415 -52.9912 56.140568)" gradientUnits="userSpaceOnUse" r="17.773972"><stop offset="0" stop-color="#585858"/><stop offset=".6022559" stop-color="#565656" stop-opacity=".397744"/><stop offset=".9108146" stop-color="#4e4e4e" stop-opacity=".089185"/><stop offset="1" stop-color="#4a4a4a" stop-opacity="0"/></radialGradient><linearGradient id="b"><stop offset="0" stop-color="#282828"/><stop offset=".1288903" stop-color="#212121"/><stop offset=".6682875" stop-color="#090909"/><stop offset="1"/></linearGradient><linearGradient id="c" gradientUnits="userSpaceOnUse" x1="21.379883" x2="19.285154" xlink:href="#b" y1="29.799316" y2="23.514164"/><linearGradient id="d"><stop offset="0" stop-color="#fff"/><stop offset="1"/></linearGradient><linearGradient id="e" gradientUnits="userSpaceOnUse" x1="10.70166" x2="8.450871" xlink:href="#d" y1="41.821289" y2="52.836536"/><linearGradient id="f"><stop offset="0"/><stop offset="1" stop-color="#171717"/></linearGradient><linearGradient id="g" gradientUnits="userSpaceOnUse" x1="11.003906" x2="8.318834" xlink:href="#f" y1="53.164063" y2="39.480541"/><linearGradient id="h" gradientTransform="matrix(-1 0 0 -1 -23.290039 93.035156)" gradientUnits="userSpaceOnUse" x1="-33.690918" x2="-31.054369" xlink:href="#d" y1="38.40625" y2="51.309391"/><linearGradient id="i" gradientUnits="userSpaceOnUse" x1="9.035645" x2="11.682742" xlink:href="#d" y1="38.602539" y2="51.557304"/><linearGradient id="j" gradientTransform="matrix(.5 -.8660001 .8660001 .5 -46.314331 13.380737)" gradientUnits="userSpaceOnUse" x1="-1.461914" x2="1.177411" xlink:href="#d" y1="57.143555" y2="70.06028"/><linearGradient id="k" gradientTransform="matrix(-.5 -.8660001 .8660001 -.5 -57.959351 59.897339)" gradientUnits="userSpaceOnUse" x1="-23.048828" x2="-20.406727" xlink:href="#d" y1="57.22168" y2="70.151993"/><linearGradient id="l" gradientTransform="matrix(-.5 .8660001 -.8660001 -.5 23.024292 79.655396)" gradientUnits="userSpaceOnUse" x1="-22.614258" x2="-19.974934" xlink:href="#d" y1="20.013184" y2="32.929913"/><linearGradient id="m" gradientTransform="matrix(.5 .8660001 -.8660001 .5 34.670776 33.137817)" gradientUnits="userSpaceOnUse" x1="-1.46875" x2="1.172241" xlink:href="#d" y1="20.342285" y2="33.267162"/><linearGradient id="n" gradientTransform="matrix(-1 0 0 1 99.875 0)" gradientUnits="userSpaceOnUse" x1="89.617188" x2="92.297669" xlink:href="#d" y1="44.042969" y2="56.881104"/><linearGradient id="o" gradientUnits="userSpaceOnUse" x1="4.472656" x2="14.967773" xlink:href="#d" y1="46.623047" y2="46.623047"/><linearGradient id="p" gradientTransform="matrix(.9169 .399 -.399 .9169 11.926636 5.686871)" gradientUnits="userSpaceOnUse" x1="13.924805" x2="15.036516" xlink:href="#d" y1="33.577148" y2="33.577148"/><linearGradient id="q"><stop offset="0" stop-color="#515151"/><stop offset="1"/></linearGradient><linearGradient id="r" gradientTransform="matrix(.9169 .399 -.399 .9169 11.926636 5.686871)" gradientUnits="userSpaceOnUse" x1="13.837891" x2="14.874116" xlink:href="#q" y1="31.051758" y2="31.051758"/><linearGradient id="s" gradientUnits="userSpaceOnUse" x1="50.768555" x2="48.517765" xlink:href="#d" y1="39.677734" y2="50.692982"/><linearGradient id="t" gradientUnits="userSpaceOnUse" x1="51.070313" x2="48.385243" xlink:href="#f" y1="51.020508" y2="37.336987"/><linearGradient id="u" gradientTransform="matrix(-1 0 0 -1 -23.290039 93.035156)" gradientUnits="userSpaceOnUse" x1="-73.757813" x2="-71.120705" xlink:href="#d" y1="40.548828" y2="53.454689"/><linearGradient id="v" gradientUnits="userSpaceOnUse" x1="49.101563" x2="51.749214" xlink:href="#d" y1="36.458008" y2="49.415489"/><linearGradient id="w" gradientTransform="matrix(.5 -.8660001 .8660001 .5 -46.314331 13.380737)" gradientUnits="userSpaceOnUse" x1="20.428711" x2="23.068035" xlink:href="#d" y1="90.770508" y2="103.687233"/><linearGradient id="x" gradientTransform="matrix(-.5 -.8660001 .8660001 -.5 -57.959351 59.897339)" gradientUnits="userSpaceOnUse" x1="-41.227051" x2="-38.58495" xlink:href="#d" y1="92.992188" y2="105.922501"/><linearGradient id="y" gradientTransform="matrix(-.5 .8660001 -.8660001 -.5 23.024292 79.655396)" gradientUnits="userSpaceOnUse" x1="-44.504883" x2="-41.866112" xlink:href="#d" y1="-13.612305" y2="-.698294"/><linearGradient id="z" gradientTransform="matrix(.5 .8660001 -.8660001 .5 34.670776 33.137817)" gradientUnits="userSpaceOnUse" x1="16.709473" x2="19.350464" xlink:href="#d" y1="-15.428711" y2="-2.503833"/><linearGradient id="A" gradientTransform="matrix(-1 0 0 1 99.875 0)" gradientUnits="userSpaceOnUse" x1="49.549805" x2="52.230286" xlink:href="#d" y1="41.899414" y2="54.737549"/><linearGradient id="B" gradientUnits="userSpaceOnUse" x1="44.539063" x2="55.03418" xlink:href="#d" y1="44.479492" y2="44.479492"/><linearGradient id="C" gradientTransform="matrix(.8917 -.4527 .4527 .8917 7.515905 61.740784)" gradientUnits="userSpaceOnUse" x1="44.985352" x2="46.097534" xlink:href="#d" y1="-.865723" y2="-.865723"/><linearGradient id="D" gradientTransform="matrix(.8917 -.4527 .4527 .8917 7.515905 61.740784)" gradientUnits="userSpaceOnUse" x1="44.899414" x2="45.935371" xlink:href="#q" y1="-3.390625" y2="-3.390625"/><linearGradient id="E" gradientUnits="userSpaceOnUse" x1="30.769531" x2="45.984375" xlink:href="#b" y1="42.584961" y2="42.584961"/><linearGradient id="F" gradientUnits="userSpaceOnUse" x1="18.213379" x2="22.474794" xlink:href="#b" y1="18.20459" y2="24.29903"/><linearGradient id="G" gradientUnits="userSpaceOnUse" x1="15.989746" x2="18.165335" xlink:href="#b" y1="27.487305" y2="34.415878"/><linearGradient id="H" gradientUnits="userSpaceOnUse" x1="21.623047" x2="31.210814" xlink:href="#b" y1="30.940918" y2="44.652809"/><linearGradient id="I" gradientUnits="userSpaceOnUse" x1="39.279297" x2="37.265621" y1="47.410156" y2="35.40329"><stop offset="0" stop-color="#c9c9c9"/><stop offset=".0116622" stop-color="#c6c6c6"/><stop offset=".2820517" stop-color="#808080"/><stop offset=".5255546" stop-color="#494949"/><stop offset=".733885" stop-color="#212121"/><stop offset=".8989043" stop-color="#090909"/><stop offset="1"/></linearGradient><linearGradient id="J"><stop offset="0" stop-color="#f00"/><stop offset=".0536843" stop-color="#f30100"/><stop offset=".1505635" stop-color="#d30300"/><stop offset=".272727" stop-color="#a30600"/><stop offset=".4375109" stop-color="#b30500"/><stop offset=".7566826" stop-color="#dc0200"/><stop offset="1" stop-color="#f00"/></linearGradient><linearGradient id="K" gradientUnits="userSpaceOnUse" x1="16.596191" x2="20.017635" xlink:href="#J" y1="18.833984" y2="23.727144"/><linearGradient id="L" gradientUnits="userSpaceOnUse" x1="11.691895" x2="17.200117" xlink:href="#J" y1="27.493164" y2="35.37072"/><linearGradient id="M" gradientUnits="userSpaceOnUse" x1="21.341797" x2="33.186523" xlink:href="#b" y1="46.68457" y2="46.68457"/><linearGradient id="N" gradientUnits="userSpaceOnUse" x1="46.563477" x2="49.786133" xlink:href="#b" y1="33.869141" y2="33.869141"/><linearGradient id="O" gradientUnits="userSpaceOnUse" x1="5.958496" x2="10.031324" xlink:href="#J" y1="38.543945" y2="44.368679"/><linearGradient id="P" gradientUnits="userSpaceOnUse" x1="31.392578" x2="36.634426" xlink:href="#b" y1="30.487305" y2="37.983906"/><linearGradient id="Q" gradientUnits="userSpaceOnUse" x1="50.189453" x2="58.93457" xlink:href="#b" y1="35.630859" y2="35.630859"/><linearGradient id="R" gradientUnits="userSpaceOnUse" x1="28.317383" x2="39.214634" xlink:href="#J" y1="26.898926" y2="42.48357"/><linearGradient id="S" gradientUnits="userSpaceOnUse" x1="20.458008" x2="22.846975" xlink:href="#b" y1="11.1875" y2="14.604069"/><linearGradient id="T" gradientUnits="userSpaceOnUse" x1="37.96875" x2="38.935543" xlink:href="#b" y1="25.870606" y2="28.932617"/><linearGradient id="U"><stop offset="0" stop-color="#f00" stop-opacity="0"/><stop offset=".2824324" stop-color="#b00000" stop-opacity=".282432"/><stop offset=".5330473" stop-color="#720000" stop-opacity=".533047"/><stop offset=".7435306" stop-color="#450000" stop-opacity=".743531"/><stop offset=".9056904" stop-color="#290000" stop-opacity=".90569"/><stop offset="1" stop-color="#1f0000"/></linearGradient><linearGradient id="V" gradientUnits="userSpaceOnUse" x1="47.026367" x2="44.881802" xlink:href="#U" y1="35.179688" y2="29.589525"/><linearGradient id="W" gradientUnits="userSpaceOnUse" x1="13.834961" x2="13.786713" xlink:href="#U" y1="35.456055" y2="27.740763"/><linearGradient id="X" gradientUnits="userSpaceOnUse" x1="21.568359" x2="23.182829" xlink:href="#b" y1="18.935547" y2="21.244473"/><linearGradient id="Y"><stop offset="0" stop-color="#fff"/><stop offset="1" stop-color="#fff" stop-opacity="0"/></linearGradient><linearGradient id="Z" gradientUnits="userSpaceOnUse" x1="2.038086" x2="35.87241" xlink:href="#Y" y1="39.175781" y2="42.841938"/><linearGradient id="aa" gradientUnits="userSpaceOnUse" x1="46.525391" x2="49.184567" y1="36.484375" y2="41.480469"><stop offset="0" stop-color="#212121"/><stop offset="1"/></linearGradient><linearGradient id="ab" gradientUnits="userSpaceOnUse" x1="44.785156" x2="53.159451" xlink:href="#q" y1="38.475586" y2="42.119682"/><linearGradient id="ac" gradientUnits="userSpaceOnUse" x1="41.270508" x2="47.394535" xlink:href="#q" y1="41.31543" y2="47.600582"/><linearGradient id="ad" gradientUnits="userSpaceOnUse" x1="36.996094" x2="47.913094" xlink:href="#Y" y1="34.194336" y2="27.610834"/><path d="m62.9521484 51.3427734c.1298828 2.2109375-13.6044922 4.8085938-30.6791992 5.8007813-17.0693359.9931641-31.0053711.0058594-31.1337891-2.2041016-.1293945-2.2119141 13.5991211-4.8076172 30.668457-5.7998047 17.0742188-.993164 31.0156251-.008789 31.1445313 2.203125z" fill="url(#a)" opacity=".75"/><path d="m21.1625977 23.6645508-.8251954 2.0327148-2.3735351-.6630859.5576172-1.9912109z" fill="url(#c)"/><path d="m20.2700195 25.9379883-2.3735352-.6630859-.1733398-.3081055.5576172-1.9912109.2978516-.1757813 2.6411133.621582.1743164.3374023-.8251953 2.0327148zm-1.9980468-1.0771485 1.9179688.5356445.6313477-1.5556641-2.1235352-.4995117z"/><path d="m21.1630859 19.4804688c-.0063477 0-.012207 0-.0180664-.0004883-.2138672-.0097656-.3789063-.1904297-.3691406-.4042969l.1791992-3.9472656c.0097656-.2138672.2045898-.3911133.4042969-.3691406.2138672.0097656.3789063.1904297.3691406.4042969l-.1791992 3.9472656c-.0092773.2075195-.1806641.3696289-.3862305.3696289z"/><path d="m50.6738281 27.1791992c-.015625 0-.03125-.0009766-.046875-.003418-.1738281-.0234375-.3027344-.1713867-.3027344-.3466797v-.6518555c0-.1625977.1103516-.2993164.2607422-.3388672l.5566406-2.0039063c.0332031-.1220703.1308594-.2163086.2539063-.246582l1.0859375-.2636719c.1210938-.0297852.25.0078125.3359375.0986328.0859375.0898438.1181641.2192383.0830078.3393555l-.8457031 2.9135742c-.0537109.1850586-.2490234.2944336-.4335938.2382813-.1855469-.0537109-.2919922-.2480469-.2382813-.4335938l.6767578-2.3330078-.2988281.0722656-.75 2.703125c-.0419921.1528322-.1816405.2563478-.336914.2563478z"/><circle cx="9.720215" cy="46.623047" fill="url(#e)" r="3.451172"/><path d="m9.7202148 50.3017578c-2.0283203 0-3.6782227-1.6503906-3.6782227-3.6787109s1.6499023-3.6796875 3.6782227-3.6796875 3.6782227 1.6513672 3.6782227 3.6796875-1.6499023 3.6787109-3.6782227 3.6787109zm0-6.9033203c-1.777832 0-3.2241211 1.4462891-3.2241211 3.2246094 0 1.7773438 1.4462891 3.2236328 3.2241211 3.2236328s3.2241211-1.4462891 3.2241211-3.2236328c0-1.7783203-1.446289-3.2246094-3.2241211-3.2246094z"/><path d="m9.7197266 39.2607422c-4.065918 0-7.3623047 3.2958984-7.3623047 7.3613281 0 4.0673828 3.2963867 7.3632813 7.3623047 7.3632813 4.0664063 0 7.362793-3.2958984 7.362793-7.3632813-.0000001-4.0654297-3.2963868-7.3613281-7.362793-7.3613281zm0 11.7236328c-2.4091797 0-4.362793-1.9541016-4.362793-4.3623047 0-2.4091797 1.9536133-4.3613281 4.362793-4.3613281 2.409668 0 4.362793 1.9521484 4.362793 4.3613281-.0000001 2.4082031-1.9531251 4.3623047-4.362793 4.3623047z" fill="url(#g)"/><path d="m9.7197266 54.2548828c-4.2080078 0-7.6318359-3.4238281-7.6318359-7.6328125 0-4.2080078 3.4238281-7.6308594 7.6318359-7.6308594 4.2084961 0 7.6323242 3.4228516 7.6323242 7.6308594 0 4.2089844-3.4238281 7.6328125-7.6323242 7.6328125zm0-14.7246094c-3.9111328 0-7.0927734 3.1816406-7.0927734 7.0917969 0 3.9111328 3.1816406 7.09375 7.0927734 7.09375s7.0932617-3.1826172 7.0932617-7.09375c0-3.9101562-3.1821289-7.0917969-7.0932617-7.0917969zm0 11.7236329c-2.5541992 0-4.6323242-2.078125-4.6323242-4.6318359s2.078125-4.6308594 4.6323242-4.6308594 4.6323242 2.0771484 4.6323242 4.6308594-2.078125 4.6318359-4.6323242 4.6318359zm0-8.7236329c-2.2568359 0-4.0932617 1.8359375-4.0932617 4.0917969 0 2.2568359 1.8364258 4.0927734 4.0932617 4.0927734s4.0932617-1.8359375 4.0932617-4.0927734c0-2.2558594-1.8364258-4.0917969-4.0932617-4.0917969z"/><path d="m8.2041016 51.2910156h1.8408203s1.7514648-2.1298828-.324707-4.6679688l-.7626953.2851563c-.0000001 0 1.8017577 3.3896485-.753418 4.3828125z" fill="url(#h)"/><path d="m10.0449219 51.4414063h-1.8408203c-.0722656 0-.1347656-.0517578-.1479492-.1230469s.0258789-.1416016.0932617-.1679688c.5688477-.2207031.9516602-.5869141 1.1376953-1.0878906.4785156-1.2880859-.453125-3.0654297-.4624023-3.0839844-.0205078-.0380859-.0234375-.0830078-.0078125-.1240234.0151367-.0400391.0473633-.0722656.0878906-.0869141l.7626953-.2851563c.0600586-.0253906.1279297-.0048828.1694336.0449219 2.1293945 2.6035156.3427734 4.8369141.3242188 4.859375-.0283204.0351563-.0712891.0546876-.116211.0546876zm-1.2324219-.3007813h1.1582031c.2509766-.3417969 1.4160156-2.1582031-.2998047-4.3378906l-.5043945.1884766c.2265625.4804688.847168 1.9804688.402832 3.1757813-.1489257.4003905-.4023437.7265624-.7568359.9736327z"/><path d="m11.2358398 41.9541016h-1.840332s-1.7514648 2.1386719.324707 4.6865234l.7626953-.2861328c.0000001 0-1.8017578-3.4042969.7529297-4.4003906z" fill="url(#i)"/><path d="m9.7202148 46.7919922c-.0444336 0-.0878906-.0205078-.1171875-.0556641-2.1293945-2.6132813-.3427734-4.8554688-.3242188-4.8779297.0288086-.0351563.0712891-.0556641.1166992-.0556641h1.840332c.0727539 0 .1347656.0517578.1484375.1230469.0131836.0712891-.0258789.1425781-.09375.1689453-.5668945.2207031-.9492188.5869141-1.1357422 1.0888672-.480957 1.2910156.4521484 3.0820313.4614258 3.1005859.0205078.0380859.0229492.0830078.0078125.1240234-.015625.0400391-.0473633.0722656-.0878906.0878906l-.7626953.2861328c-.017578.0058595-.0356444.0097658-.0532226.0097658zm-.25-4.6865234c-.2509766.3427734-1.4165039 2.1669922.2993164 4.3554688l.5043945-.1894531c-.2265625-.4824219-.8486328-1.9921875-.4023438-3.1923828.1494141-.4013672.4023438-.7265625.7563477-.9736328h-1.1577148z"/><path d="m6.4345703 42.9794922-.9199219 1.5996094s.9682617 2.5927734 4.2055664 2.0615234l.1342773-.8066406c.0000001 0-3.8378905-.1347656-3.4199218-2.8544922z" fill="url(#j)"/><path d="m8.8754883 46.8632813c-2.6381836 0-3.4936523-2.2089844-3.5024414-2.2314453-.015625-.0419922-.0117188-.0888672.0107422-.1279297l.9199219-1.5996094c.0366211-.0634766.1142578-.0908203.1806641-.0673828.0688477.0244141.1103516.09375.0991211.1650391-.0932617.6074219.0336914 1.125.3764648 1.5390625.8769531 1.0595703 2.8798828 1.1416016 2.8999023 1.1425781.043457.0009766.0839844.0214844.1113281.0546875.027832.0341797.0390625.078125.0322266.1201172l-.1342773.8066406c-.0107422.0644531-.0605469.1142578-.1245117.1240234-.2983399.0498047-.5908204.0742188-.8691407.0742188zm-3.1928711-2.2734375c.1538086.3515625.9848633 1.9716797 3.1928711 1.9716797.2290039 0 .46875-.0175781.7138672-.0537109l.0888672-.5341797c-.5297852-.0439453-2.1367188-.2568359-2.9506836-1.2402344-.2739258-.3310547-.4301758-.7158203-.4672852-1.1484375z"/><path d="m4.918457 47.6669922.9204102 1.6005859s2.7197266.453125 3.8813477-2.6269531l-.6289063-.5195313c0 .0000001-2.0356445 3.2695313-4.1728516 1.5458985z" fill="url(#k)"/><path d="m6.2104492 49.4423828c-.2407227 0-.3901367-.0253906-.3964844-.0263672-.0444336-.0068359-.0834961-.0341797-.105957-.0732422l-.9204102-1.6005859c-.0361328-.0625-.0224609-.1425781.0327148-.1894531.0551758-.0478516.1357422-.0488281.1928711-.0029297.3852539.3105469.7929688.4677734 1.2119141.4677734 1.487793 0 2.7255859-1.9560547 2.7382813-1.9765625.0229492-.0371094.0605469-.0615234.1035156-.0683594.0424805-.0117187.0864258.0048829.1206055.0322266l.6289063.5195313c.0498047.0410156.0678711.109375.0449219.1699219-.9355469 2.4794921-2.8647462 2.7480468-3.650879 2.7480468zm-.2783203-.3154297c.0595703.0058594.1552734.0126953.2783203.0126953.7124023 0 2.4477539-.2412109 3.3295898-2.4521484l-.4155273-.34375c-.331543.4804688-1.4785156 1.9755859-2.8994141 1.9755859-.2983398 0-.5898438-.0664063-.8720703-.1992188z"/><path d="m13.0063477 50.3037109.9199219-1.6005859s-.9692383-2.5908203-4.2060547-2.0625l-.1337891.8076172s3.836914.1357422 3.4199219 2.8554687z" fill="url(#l)"/><path d="m13.0063477 50.4550781c-.0166016 0-.0336914-.0029297-.0498047-.0087891-.0688477-.0244141-.1103516-.09375-.0991211-.1650391.0927734-.6074219-.0336914-1.125-.3769531-1.5390625-.8774414-1.0595703-2.8793945-1.1425781-2.8994141-1.1435547-.043457-.0009766-.0839844-.0214844-.1113281-.0546875-.0273438-.0341796-.0390625-.0771483-.0322266-.1201171l.1337891-.8076172c.0107422-.0644531.0605469-.1142578.1245117-.125.296875-.0478516.5883789-.0722656.8657227-.0722656 2.640625 0 3.4975586 2.2089844 3.5058594 2.2314453.0161133.0419922.012207.0888672-.0102539.1279297l-.9199219 1.6005859c-.0273438.0478516-.0781251.0761719-.1308594.0761719zm-3.2436524-3.1464843c.5292969.0439453 2.1357422.2578125 2.9501953 1.2412109.2744141.3310547.4301758.7158203.4672852 1.1484375l.578125-1.0058594c-.1542969-.3515625-.9863281-1.9716797-3.1967773-1.9716797-.2280273 0-.4663086.0175781-.7104492.0527344z"/><path d="m14.5224609 45.6152344-.9208984-1.5996094s-2.7202148-.4541016-3.8813477 2.625l.628418.5205078s2.0351563-3.2675781 4.1738281-1.5458984z" fill="url(#m)"/><path d="m10.3486328 47.3125c-.034668 0-.0688477-.0126953-.0961914-.0351563l-.628418-.5205078c-.0498047-.0410156-.0678711-.109375-.0449219-.1699219.9345703-2.4785156 2.8637695-2.7460938 3.6494141-2.7460938.2416992 0 .3916016.0253906.3979492.0263672.0444336.0068359.0834961.0341797.105957.0732422l.9008789 1.5644531c.0292969.0273438.0478516.0673828.0478516.1103516 0 .0830078-.0678711.1513672-.1513672.1513672-.0024414 0-.0039063 0-.0073242 0-.0336914 0-.0668945-.0117188-.0947266-.0341797-.3852539-.3095703-.793457-.4677734-1.2119141-.4677734-1.4912109 0-2.7265625 1.9560547-2.7392578 1.9765625-.0229492.0371094-.0605469.0615234-.1035156.0693359-.0083007.0009766-.0166015.0019532-.024414.0019532zm-.4482422-.71875.4155273.34375c.331543-.4794922 1.4785156-1.9746094 2.8999023-1.9746094.2983398 0 .5898438.0673828.8720703.1992188l-.5795897-1.0058594c-.0595703-.0058594-.15625-.0136719-.2797852-.0136719-.7124023 0-2.4467773.2421875-3.328125 2.4511719z"/><circle cx="9.720215" cy="46.623047" fill="url(#n)" r="1.748047"/><path d="m9.7207031 48.5195313c-1.0473633 0-1.8989258-.8505859-1.8989258-1.8964844s.8515625-1.8974609 1.8989258-1.8974609c1.046875 0 1.8979492.8515625 1.8979492 1.8974609s-.8510742 1.8964844-1.8979492 1.8964844zm0-3.4931641c-.8813477 0-1.5981445.7167969-1.5981445 1.5966797s.7167969 1.5957031 1.5981445 1.5957031c.8803711 0 1.597168-.7158203 1.597168-1.5957031s-.7167969-1.5966797-1.597168-1.5966797z"/><path d="m4.4726563 46.6230469c0 2.8964844 2.3505859 5.2480469 5.2480469 5.2480469 2.8969727 0 5.2470703-2.3515625 5.2470703-5.2480469s-2.3500977-5.2480469-5.2470704-5.2480469c-2.8974609 0-5.2480468 2.3515625-5.2480468 5.2480469zm.609375 0c0-2.5615234 2.0766602-4.6376953 4.6386719-4.6376953s4.6376953 2.0761719 4.6376953 4.6376953-2.0756836 4.6376953-4.6376953 4.6376953-4.6386719-2.0761719-4.6386719-4.6376953z" fill="url(#o)"/><path d="m9.7207031 52.0214844c-2.9770508 0-5.3984375-2.421875-5.3984375-5.3984375s2.4213867-5.3984375 5.3984375-5.3984375c2.9760742 0 5.3974609 2.421875 5.3974609 5.3984375s-2.4213867 5.3984375-5.3974609 5.3984375zm0-10.4960938c-2.8105469 0-5.0976563 2.2871094-5.0976563 5.0976563s2.2871094 5.0976563 5.0976563 5.0976563c2.8100586 0 5.0966797-2.2871094 5.0966797-5.0976563s-2.2866211-5.0976563-5.0966797-5.0976563zm0 9.8857422c-2.640625 0-4.7890625-2.1474609-4.7890625-4.7880859s2.1484375-4.7880859 4.7890625-4.7880859c2.6401367 0 4.7880859 2.1474609 4.7880859 4.7880859s-2.1479492 4.7880859-4.7880859 4.7880859zm0-9.2753906c-2.4746094 0-4.4882813 2.0126953-4.4882813 4.4873047s2.0136719 4.4873047 4.4882813 4.4873047c2.4741211 0 4.4873047-2.0126953 4.4873047-4.4873047s-2.0131836-4.4873047-4.4873047-4.4873047z"/><path d="m11.2719727 46.9746094.1909179-.3291016-.1909179-.3300781h-.3813477l-.1914062.3300781.1914062.3291016z"/><path d="m9.7114258 45.5957031.1904297-.3320312-.1904297-.3310547h-.3823242l-.1899414.3310547.1899414.3320312z"/><path d="m10.09375 48.3125.190918-.3300781-.190918-.3310547h-.3823242l-.1914063.3310547.1914063.3300781z"/><path d="m8.5498047 47.2636719.190918-.3320313-.190918-.3310547h-.3823242l-.1904297.3310547.1904297.3320313z"/><path d="m10.359375 46.90625-1.0595703-.4609375 3.8666992-8.8857422 1.0595703.4609375z" fill="url(#p)"/><path d="m10.359375 47.0351563c-.0170898 0-.034668-.0029297-.0512695-.0107422l-1.0595703-.4609375c-.0317383-.0136719-.0561523-.0390625-.0688477-.0712891-.0126953-.03125-.0117188-.0673828.0019531-.0986328l3.8666992-8.8857422c.0283203-.0634766.1049805-.0966797.1694336-.0664063l1.0595703.4609375c.0317383.0136719.0561523.0390625.0688477.0712891.0126953.03125.0117188.0673828-.0019531.0986328l-3.8666992 8.8857422c-.0209961.0478516-.0683594.0771485-.1181641.0771485zm-.8896484-.65625.8227539.3574219 3.7636719-8.6494141-.8227539-.3574219z"/><path d="m12.3217773 43.3046875-1.7236328-.7509766 2.6210938-6.0234375 1.7236328.75z" fill="url(#r)"/><path d="m12.3217773 43.4335938c-.0175781 0-.0351563-.0039063-.0517578-.0107422l-1.7236328-.7509766c-.0649414-.0283203-.0947266-.1044922-.0664063-.1699219l2.6210938-6.0234375c.0288086-.0644531.1040039-.0976563.1694336-.0664063l1.7236328.75c.0654297.0283203.0952148.1044922.0668945.1699219l-2.6210938 6.0244141c-.0136719.03125-.0390625.0556641-.0708008.0683594-.0151366.0058594-.0312499.0087891-.0473632.0087891zm-1.5537109-.9462891 1.4868164.6474609 2.5180664-5.7880859-1.4868164-.6464844z"/><circle cx="9.720215" cy="46.623047" r=".940918"/><circle cx="49.787109" cy="44.479492" fill="url(#s)" r="3.451172"/><path d="m49.7871094 48.1582031c-2.0283203 0-3.6787109-1.6503906-3.6787109-3.6787109s1.6503906-3.6796875 3.6787109-3.6796875 3.6787109 1.6513672 3.6787109 3.6796875-1.6503906 3.6787109-3.6787109 3.6787109zm0-6.9033203c-1.7773438 0-3.2236328 1.4462891-3.2236328 3.2246094 0 1.7773438 1.4462891 3.2236328 3.2236328 3.2236328s3.2236328-1.4462891 3.2236328-3.2236328c0-1.7783203-1.4462891-3.2246094-3.2236328-3.2246094z"/><path d="m49.7861328 37.1171875c-4.0654297 0-7.3623047 3.2958984-7.3623047 7.3613281 0 4.0673828 3.296875 7.3632813 7.3623047 7.3632813 4.0664063 0 7.3623047-3.2958984 7.3623047-7.3632813 0-4.0654297-3.2958984-7.3613281-7.3623047-7.3613281zm0 11.7236328c-2.4091797 0-4.3623047-1.9541016-4.3623047-4.3623047 0-2.4091797 1.953125-4.3613281 4.3623047-4.3613281s4.3623047 1.9521484 4.3623047 4.3613281c0 2.4082032-1.953125 4.3623047-4.3623047 4.3623047z" fill="url(#t)"/><path d="m49.7861328 52.1113281c-4.2080078 0-7.6318359-3.4238281-7.6318359-7.6328125 0-4.2080078 3.4238281-7.6308594 7.6318359-7.6308594s7.6318359 3.4228516 7.6318359 7.6308594c.0000001 4.2089844-3.4238281 7.6328125-7.6318359 7.6328125zm0-14.7246093c-3.9111328 0-7.0927734 3.1816406-7.0927734 7.0917969 0 3.9111328 3.1816406 7.09375 7.0927734 7.09375s7.0927734-3.1826172 7.0927734-7.09375c.0000001-3.9101563-3.1816406-7.0917969-7.0927734-7.0917969zm0 11.7236328c-2.5537109 0-4.6318359-2.078125-4.6318359-4.6318359s2.078125-4.6308594 4.6318359-4.6308594 4.6318359 2.0771484 4.6318359 4.6308594-2.0781249 4.6318359-4.6318359 4.6318359zm0-8.7236328c-2.2568359 0-4.0927734 1.8359375-4.0927734 4.0917969 0 2.2568359 1.8359375 4.0927734 4.0927734 4.0927734s4.0927734-1.8359375 4.0927734-4.0927734c.0000001-2.2558594-1.8359374-4.0917969-4.0927734-4.0917969z"/><path d="m48.2705078 49.1474609h1.8408203s1.7519531-2.1298828-.3242188-4.6679688l-.7636719.2851563c.0000001 0 1.8027345 3.3896485-.7529296 4.3828125z" fill="url(#u)"/><path d="m50.1113281 49.2978516h-1.8408203c-.0722656 0-.1347656-.0517578-.1484375-.1230469-.0126953-.0712891.0263672-.1416016.09375-.1679688.5693359-.2207031.9521484-.5869141 1.1376953-1.0878906.4785156-1.2880859-.453125-3.0654297-.4628906-3.0839844-.0205078-.0380859-.0234375-.0830078-.0078125-.1240234.015625-.0400391.046875-.0722656.0878906-.0869141l.7636719-.2851563c.0605469-.0244141.1269531-.0048828.1689453.0449219 2.1298828 2.6035156.3427734 4.8369141.3242188 4.859375-.0283203.0351563-.0712891.0546876-.116211.0546876zm-1.2324218-.3007813h1.1582031c.2509766-.3417969 1.4169922-2.1582031-.2988281-4.3388672l-.5058594.1894531c.2265625.4804688.8476563 1.9804688.4033203 3.1757813-.1484375.4003906-.4023438.7265625-.7568359.9736328z"/><path d="m51.3027344 39.8105469h-1.8408203s-1.7509766 2.1386719.3251953 4.6865234l.7617188-.2861328c-.0000001 0-1.8007813-3.4042969.7539062-4.4003906z" fill="url(#v)"/><path d="m49.7871094 44.6484375c-.0449219 0-.0878906-.0205078-.1171875-.0556641-2.1289063-2.6132813-.3427734-4.8554688-.3251953-4.8779297.0292969-.0351563.0722656-.0556641.1171875-.0556641h1.8408203c.0722656 0 .1347656.0517578.1484375.1230469s-.0263672.1425781-.09375.1689453c-.5673828.2207031-.9492188.5869141-1.1357422 1.0888672-.4814453 1.2910156.4511719 3.0820313.4609375 3.1005859.0195313.0380859.0224609.0830078.0068359.1240234-.0146484.0400391-.046875.0722656-.0878906.0878906l-.7617188.2861328c-.0166015.0058596-.0351562.0097658-.0527343.0097658zm-.2509766-4.6865234c-.2509766.3427734-1.4160156 2.1669922.3007813 4.3554688l.5029297-.1894531c-.2265625-.4824219-.8486328-1.9921875-.4013672-3.1923828.1494141-.4013672.4023438-.7265625.7558594-.9736328h-1.1582032z"/><path d="m46.5009766 40.8359375-.9199219 1.5996094s.9677734 2.5927734 4.2060547 2.0615234l.1337891-.8066406c-.0000001 0-3.8378907-.1347656-3.4199219-2.8544922z" fill="url(#w)"/><path d="m48.9423828 44.7197266c-2.6386719 0-3.4941406-2.2089844-3.5029297-2.2314453-.015625-.0419922-.0117188-.0888672.0107422-.1279297l.9199219-1.5996094c.0361328-.0634766.1113281-.0908203.1806641-.0673828.0683594.0244141.1103516.09375.0996094.1650391-.09375.6074219.0332031 1.125.3759766 1.5390625.8769531 1.0595703 2.8798828 1.1416016 2.8994141 1.1425781.0439453.0009766.0839844.0214844.1123047.0546875.0273438.0341797.0390625.0771484.03125.1201172l-.1337891.8066406c-.0097656.0644531-.0605469.1142578-.1240234.1240234-.2978517.0498047-.5908205.0742188-.8691408.0742188zm-3.1933594-2.2734375c.1542969.3515625.984375 1.9716797 3.1933594 1.9716797.2285156 0 .46875-.0175781.7138672-.0537109l.0888672-.5341797c-.5302734-.0439453-2.1367188-.2568359-2.9511719-1.2402344-.2744141-.3310547-.4306641-.7158203-.4667969-1.1484375z"/><path d="m44.984375 45.5234375.9208984 1.6005859s2.7197266.453125 3.8818359-2.6269531l-.6289063-.5195313c.0000001.0000001-2.0361327 3.2695313-4.173828 1.5458985z" fill="url(#x)"/><path d="m46.2763672 47.2988281c-.2402344 0-.3896484-.0253906-.3955078-.0263672-.0449219-.0068359-.0839844-.0341797-.1064453-.0732422l-.9208984-1.6005859c-.0361328-.0625-.0224609-.1425781.0332031-.1894531.0527344-.0488281.1357422-.0498047.1923828-.0029297.3857422.3105469.7929688.4677734 1.2119141.4677734 1.4912109 0 2.7265625-1.9560547 2.7392578-1.9765625.0224609-.0371094.0605469-.0615234.1035156-.0683594.0439453-.0117188.0878906.0048828.1201172.0322266l.6289063.5195313c.0498047.0410156.0683594.109375.0458984.1699219-.9365235 2.4794921-2.866211 2.7480468-3.6523438 2.7480468zm-.2783203-.3154297c.0595703.0058594.15625.0126953.2783203.0126953.7128906 0 2.4482422-.2412109 3.3310547-2.4521484l-.4160156-.34375c-.3320313.4804688-1.4794922 1.9755859-2.9003906 1.9755859-.2978516 0-.5898438-.0664063-.8720703-.1992188z"/><path d="m53.0722656 48.1601563.9199219-1.6005859s-.96875-2.5908203-4.2050781-2.0625l-.1347656.8076172c0-.0000001 3.8378906.1357421 3.4199218 2.8554687z" fill="url(#y)"/><path d="m53.0722656 48.3115234c-.0166016 0-.0332031-.0029297-.0498047-.0087891-.0683594-.0244141-.1103516-.09375-.0996094-.1650391.09375-.6074219-.0332031-1.125-.3759766-1.5390625-.8769531-1.0595703-2.8798828-1.1425781-2.8994141-1.1435547-.0439453-.0009766-.0849609-.0214844-.1123047-.0546875-.0273438-.0341797-.0390625-.078125-.03125-.1201172l.1347656-.8076172c.0097656-.0644531.0605469-.1142578.1240234-.125.296875-.0478516.5878906-.0722656.8652344-.0722656 2.640625 0 3.4970703 2.2089844 3.5058594 2.2314453.015625.0419922.0117188.0888672-.0107422.1279297l-.9199219 1.6005859c-.0273435.0478517-.0781248.076172-.1308592.076172zm-3.243164-3.1464843c.5292969.0439453 2.1367188.2578125 2.9501953 1.2412109.2744141.3310547.4306641.7148438.4667969 1.1484375l.578125-1.0058594c-.1542969-.3515625-.9853516-1.9716797-3.1962891-1.9716797-.2275391 0-.4658203.0175781-.7099609.0527344z"/><path d="m54.5888672 43.4716797-.9208984-1.5996094s-2.7207031-.4541016-3.8808594 2.625l.6279297.5205078s2.0351562-3.2675781 4.1738281-1.5458984z" fill="url(#z)"/><path d="m50.4150391 45.1689453c-.0351563 0-.0693359-.0126953-.0966797-.0351563l-.6279297-.5205078c-.0488281-.0410156-.0673828-.109375-.0449219-.1689453.9345703-2.4794922 2.8632813-2.7470703 3.6494141-2.7470703.2412109 0 .3916016.0253906.3974609.0263672.0449219.0068359.0839844.0341797.1064453.0732422l.9003906 1.5644531c.0292969.0273438.0478516.0673828.0478516.1103516 0 .0830078-.0673828.1513672-.1503906.1513672-.0029297 0-.0048828 0-.0078125 0-.0332031 0-.0673828-.0117188-.0947266-.0341797-.3857422-.3095703-.7929688-.4677734-1.2119141-.4677734-1.4912109 0-2.7265625 1.9560547-2.7392578 1.9765625-.0224609.0371094-.0605469.0615234-.1035156.0693359-.008789.0009766-.0166015.0019531-.024414.0019531zm-.4482422-.71875.4150391.34375c.3320313-.4794922 1.4794922-1.9746094 2.9003906-1.9746094.2978516 0 .5898438.0673828.8720703.1992188l-.5791016-1.0058594c-.0605469-.0058594-.15625-.0136719-.2802734-.0136719-.7128906 0-2.4472656.241211-3.328125 2.4511719z"/><circle cx="49.787109" cy="44.479492" fill="url(#A)" r="1.748047"/><path d="m49.7871094 46.3759766c-1.046875 0-1.8984375-.8505859-1.8984375-1.8964844s.8515625-1.8974609 1.8984375-1.8974609 1.8984375.8515625 1.8984375 1.8974609-.8515625 1.8964844-1.8984375 1.8964844zm0-3.4931641c-.8808594 0-1.5976563.7167969-1.5976563 1.5966797s.7167969 1.5957031 1.5976563 1.5957031 1.5976563-.7158203 1.5976563-1.5957031-.7167969-1.5966797-1.5976563-1.5966797z"/><path d="m44.5390625 44.4794922c0 2.8964844 2.3505859 5.2480469 5.2480469 5.2480469 2.8964844 0 5.2470703-2.3515625 5.2470703-5.2480469s-2.3505859-5.2480469-5.2470703-5.2480469c-2.897461 0-5.2480469 2.3515625-5.2480469 5.2480469zm.609375 0c0-2.5615234 2.0761719-4.6376953 4.6386719-4.6376953s4.6376953 2.0761719 4.6376953 4.6376953-2.0751953 4.6376953-4.6376953 4.6376953-4.6386719-2.0761719-4.6386719-4.6376953z" fill="url(#B)"/><path d="m49.7871094 49.8779297c-2.9765625 0-5.3984375-2.421875-5.3984375-5.3984375s2.421875-5.3984375 5.3984375-5.3984375 5.3974609 2.421875 5.3974609 5.3984375-2.4208984 5.3984375-5.3974609 5.3984375zm0-10.4960938c-2.8105469 0-5.0976563 2.2871094-5.0976563 5.0976563s2.2871094 5.0976563 5.0976563 5.0976563 5.0966797-2.2871094 5.0966797-5.0976563-2.2861328-5.0976563-5.0966797-5.0976563zm0 9.8857422c-2.640625 0-4.7890625-2.1474609-4.7890625-4.7880859s2.1484375-4.7880859 4.7890625-4.7880859 4.7880859 2.1474609 4.7880859 4.7880859-2.1474609 4.7880859-4.7880859 4.7880859zm0-9.2753906c-2.4746094 0-4.4882813 2.0126953-4.4882813 4.4873047s2.0136719 4.4873047 4.4882813 4.4873047 4.4873047-2.0126953 4.4873047-4.4873047-2.0126953-4.4873047-4.4873047-4.4873047z"/><path d="m51.3378906 44.8310547.1914063-.3291016-.1914063-.3300781h-.3808593l-.1914063.3300781.1914063.3291016z"/><path d="m49.7773438 43.4521484.1914062-.3320312-.1914062-.3310547h-.381836l-.1904297.3310547.1904297.3320312z"/><path d="m50.1601563 46.1689453.1914062-.3300781-.1914062-.3310547h-.3828125l-.1914063.3310547.1914063.3300781z"/><path d="m48.6162109 45.1201172.1904297-.3320313-.1904297-.3310546h-.3818359l-.1914062.3310546.1914062.3320313z"/><path d="m50.4003906 44.4326172-1.0302734.5234375-4.3876953-8.640625 1.03125-.5244141z" fill="url(#C)"/><path d="m49.3701172 45.0849609c-.0136719 0-.0273438-.0019531-.0400391-.0058594-.0322266-.0107422-.0595703-.0341797-.0751953-.0644531l-4.3876953-8.640625c-.0322266-.0634766-.0068359-.1416016.0566406-.1738281l1.03125-.5244141c.0302734-.0146484.0664063-.0175781.0986328-.0078125.0322266.0107422.0595703.0341797.0751953.0644531l4.3867188 8.6416016c.0322266.0634766.0068359.1416016-.0566406.1738281l-1.0302734.5234375c-.0185547.0087891-.038086.0136719-.0585938.0136719zm-4.2138672-8.7128906 4.2705078 8.4101563.7998047-.40625-4.2695313-8.4111328z"/><path d="m48.8740234 40.6259766-1.6767578.8505859-2.9736328-5.8574219 1.6757813-.852539z" fill="url(#D)"/><path d="m47.1972656 41.6054688c-.046875 0-.0917969-.0253906-.1152344-.0703125l-2.9736328-5.8574219c-.0322266-.0634766-.0068359-.1416016.0566406-.1738281l1.6757813-.8525391c.0302734-.015625.0664063-.0185547.0986328-.0078125s.0595703.0341797.0751953.0644531l2.9746094 5.859375c.015625.0302734.0175781.0664063.0078125.0986328-.0107422.0322266-.0341797.0595703-.0644531.0751953l-1.6767578.8505859c-.0185547.0097657-.0390625.013672-.0585938.013672zm-2.7998047-5.9296875 2.8564453 5.6269531 1.4462891-.7333984-2.8574219-5.6289063z"/><circle cx="49.786621" cy="44.479492" r=".940918"/><path d="m30.7695313 46.5693359 11.3623047.4052734 3.8525391-6.0820313-5.7060547-2.6972656c-.0000001.0000001-5.6416016 1.2802735-9.5087891 8.3740235z" fill="url(#E)"/><path d="m42.1230469 47.2246094-11.3623047-.4052734-.2109375-.3701172c3.8769531-7.1103516 9.4384766-8.4443359 9.6728516-8.4980469l.1621094.0185547 5.7060547 2.6972656.1044922.359375-3.8525391 6.0820313zm-10.9360352-.890625 10.8100586.3857422 3.625-5.7216797-5.3681641-2.5380859c-.6845703.1884765-5.5644531 1.7246093-9.0668945 7.8740234z"/><path d="m19.246582 17.4819336 2.6064453 1.2084961.7778321 2.0146484-.7778321 4.0288086-3.3315429-1.3696289z" fill="url(#F)"/><path d="m21.7578125 24.965332-3.331543-1.3696289-.152832-.262207.7250977-5.8823242.3530273-.1962891 2.6064453 1.2084961.128418.137207.777832 2.0146484.012207.137207-.777832 4.0288086zm-2.9648437-1.7597656 2.8725586 1.1811523.7060547-3.6586914-.715332-1.8535156-2.2036133-1.0214844z"/><path d="m18.5214844 24.7338867h1.2890625l2.0424805.5644531-2.0424805 5.2373047 1.2089844.4433594-2.0952148 4.9555664h-2.1757813l-4.3510742.9677734c-.0000001.0000001-1.2890626-2.9023437 6.1240234-12.168457z" fill="url(#G)"/><path d="m12.4516602 37.1464844-.2827148-.1425781c-.0551758-.1240234-1.265625-3.1484375 6.1572266-12.4262695l.1953125-.09375 1.3554688.0087891 2.0424805.5644531.1665039.3320313-1.949707 4.9995117.9692383.3554688.144531.3320311-2.0952148 4.9560547-.2304688.1523438h-2.1757813zm6.1899414-12.1625977c-6.0571289 7.5966797-6.1586914 10.8295898-6.0556641 11.6206055l4.1083984-.9140625 2.0639648-.0058594 1.9287109-4.5610352-.9624023-.3530273-.1469727-.3256836 1.9418945-4.9794922-1.7426758-.4814453z"/><path d="m17.386217 28.215902h.500027v6.94759h-.500027z" transform="matrix(.159171 .987251 -.987251 .159171 46.114739 9.234228)"/><path d="m12.9614258 37.5458984.4624023-.8720703 3.6586914-.7392578h1.8417969s1.5302734 1.9335938 1.6918945 4.8349609c0 0 1.53125 2.0146484 8.7836914 0l.5639648-1.2890625 9.0244141-3.5458984-.7246094 3.7871094s-9.1303711 5.0761719-16.4106445 4.6738281-8.8916015-6.8496094-8.8916015-6.8496094z" fill="url(#H)"/><path d="m22.6928711 44.6679688c-.2871094 0-.5712891-.0068359-.8535156-.0224609-7.3789063-.4082031-9.1040039-6.9726563-9.1206055-7.0390625l.0219727-.1777344.4624023-.8720703.1713867-.1279297 3.6586914-.7392578 1.8911133-.0048828.1958008.0947266c.0639648.0810547 1.5498047 1.9892578 1.7402344 4.8837891.184082.1689453.972168.7519531 3.0390625.7519531 1.4614258 0 3.2504883-.2880859 5.3193359-.8544922l.5161133-1.1806641.1376953-.1318359 9.0239258-3.5458984.3369141.2792969-.7246094 3.7871094-.1240234.171875c-.084961.0468748-8.5859376 4.7275389-15.6918946 4.7275389zm-9.4643555-7.0917969c.2290039.8017578 2.0146484 6.2041016 8.6381836 6.5693359 6.7397461.3847656 15.152832-4.0380859 16.1733398-4.5869141l.6171875-3.2255859-8.5058594 3.3427734-.5224609 1.1943359-.1621094.140625c-2.1606445.5996094-4.0336914.9042969-5.5673828.9042969-2.6953125 0-3.4511719-.953125-3.4824219-.9941406l-.050293-.1376953c-.1357422-2.4365234-1.2729492-4.1826172-1.5683594-4.5986328h-1.7158203l-3.4931641.7109375z"/><path d="m15.839412 29.961815h4.249399v.500199h-4.249399z" transform="matrix(.9849738 .1727037 -.1727037 .9849738 5.487639 -2.648499)"/><path d="m33.9931641 44.5585938 1.2890625 2.7050781 6.8496094.4423828 1.4882812-3.0810547s-5.2412109-2.3613281-6.2255859.6386719l-.6621094.3007813-.8867188-2.7753906z" fill="url(#I)"/><path d="m42.1162109 47.9550781-6.8496094-.4423828-.2099609-.1416016-1.2890625-2.7050781.0527344-.2880859 1.8525391-1.7695313.4111328.1044922.8007813 2.5078125.3095703-.140625c.3876953-1.0400391 1.3251953-1.5878906 2.7177734-1.5878906 1.78125 0 3.7285156.8681641 3.8105469.9052734l.1230469.3359375-1.4882813 3.0810547zm-6.671875-.9316406 6.5351563.421875 1.3007813-2.6914063c-.5654297-.2265625-2.0429688-.7617188-3.3681641-.7617188-1.2363281 0-1.9824219.4414063-2.2802734 1.3496094l-.1337891.1494141-.6621094.3007813-.3417969-.1513672-.7646484-2.3945313-1.4326172 1.3681641z"/><path d="m15.137207 22.1557617s.1611328-3.7070313 4.109375-4.6738281l1.3696289 1.6918945v2.0146484l-.9667969.0805664.0805664 2.6591797-1.8530273-.5639648-.4838867-.7250977c0 .0000001-1.6108398.0810547-2.2558594-.4833984z" fill="url(#K)"/><path d="m19.6572266 24.1674805-1.8530273-.5639648-.1352539-.1005859-.4072266-.6103516c-.0244141.0004883-.0512695.0004883-.0805664.0004883-.590332 0-1.6625977-.0712891-2.2084961-.5493164l-.0854492-.1987305c.0019531-.0390625.2167969-3.90625 4.2998047-4.9057617l.2539063.0854492 1.3696289 1.6918945.0556641.1572266v2.0146484l-.2290041.2490234-.730957.0610352.0737305 2.421875zm-1.6220703-1.0166016 1.4345703.4365234-.0703125-2.3110352.2290039-.2563477.737793-.0615234v-1.696289l-1.2128906-1.4980469c-3.215332.8686523-3.6889648 3.6367188-3.7558594 4.2753906.3413086.2226563.9926758.3535156 1.7836914.3535156.1210938 0 .1962891-.003418.1992188-.003418l.2207031.1108398z"/><path d="m15.137207 26.7485352s.9160156-2.9873047 2.7397461-3.3842773l1.4501953.5639648.4833984 2.2563477-2.3369141 4.4316406s-6.6074219 3.9482422-3.3842773 6.9296875l-2.739746 1.0478515s-.8857422-.6445313-1.7724609-1.9335938-1.7729492-.2421875-1.7729492-.2421875v-2.2558594c-.0000001.0000001 4.3515624-6.205078 7.3330077-7.4135741z" fill="url(#L)"/><path d="m11.4389648 38.8271484-.2363281-.03125c-.0375977-.0273438-.9306641-.6845703-1.831543-1.9941406-.2441406-.3544922-.4995117-.5351563-.7583008-.5351563-.34375 0-.6152344.3095703-.6176758.3125l-.440918-.1611328v-2.2558594l.0454102-.1435547c.1772461-.2529297 4.3276367-6.1367188 7.3354492-7.4560547.1938477-.5712891 1.1323242-3.0600586 2.8886719-3.4423828l.144043.0112305 1.4501953.5639648.1538086.1806641.4833984 2.2563477-.0234375.1689453-2.3369141 4.4316406-.0927734.0976563c-.0390625.0234375-3.8964844 2.355957-4.137207 4.6674805-.0722656.6933594.1875 1.3027344.7944336 1.8642578l-.0805664.4169922zm-2.8261718-3.0605468c.4335938 0 .8271484.2529297 1.1704102.7519531.675293.9814453 1.3554688 1.5830078 1.609375 1.7910156l2.2519531-.8613281c-.5258789-.5986328-.753418-1.2705078-.6767578-2.0019531.2524414-2.4199219 3.7871094-4.6816406 4.3168945-5.0078125l2.262207-4.2900391-.4360352-2.0361328-1.2514648-.4868164c-1.6132813.4243164-2.4746094 3.168457-2.4833984 3.1962891l-.1450195.1582031c-2.7202148 1.1030273-6.7075195 6.6040039-7.1767578 7.262207v1.6708984c.1552734-.0820312.3452148-.1464843.5585937-.1464843z"/><path d="m21.3417969 47.2158203 7.0908203.5644531.8056641.5634766h3.4248047l.5234375-1.7724609-1.7724609-1.1279297s-3.5581055-1.1279297-5.4394531.3222656l-4.121582.2412109z" fill="url(#M)"/><path d="m32.6630859 48.59375h-3.4248047l-.1430664-.0449219-.75-.5244141-7.0234375-.5595703-.2104492-.3466797.5112305-1.2089844.2158203-.1523438 4.0463867-.2363281c.6767578-.4941406 1.6035156-.7451172 2.7548828-.7451172 1.4775391 0 2.7944336.4121094 2.8500977.4296875l.0585938.0273438 1.7719727 1.1279297.1064453.2822266-.5239258 1.7724609zm-3.3461914-.5h3.1591797l.4174805-1.4130859-1.5849609-1.0078125c-.2016602-.0605469-1.3896484-.3974609-2.6689453-.3974609-1.074707 0-1.9199219.2314453-2.512207.6884766l-.1381836.0517578-3.9663086.2314453-.315918.7470703 6.7456055.5371094.1230469.0439453z"/><path d="m46.5634766 34.7851563h3.2226562v-1.8320313z" fill="url(#N)"/><path d="m49.7861328 35.0351563h-3.2226563l-.1240234-.4677734 3.2226563-1.831543.3740234.2172852v1.8320313zm-2.2773437-.5h2.0273438v-1.1523438z"/><path d="m3.855957 42.4619141h-.8867187s2.7910156-5.7382813 6.9555664-5.3271484l3.0366211 3.2314453-1.934082 3.3046875s-2.0146484-1.7734375-3.2231445-2.0957031z" fill="url(#O)"/><path d="m10.8623047 43.8583984c-.0195313-.0166016-1.9204102-1.6816406-3.0654297-2.0253906l-3.8862305.8730469-.9414063.0058594-.2246094-.359375c.1132813-.2314453 2.9248047-5.875 7.2045898-5.4667969l.1577148.078125 3.0366211 3.2314453.0336914.296875-1.934082 3.3046875zm-3.112793-2.5273437.1191406.0029297c1.0166016.2705078 2.5214844 1.4726563 3.09375 1.953125l1.6889648-2.8857422-2.8432616-3.0263672c-3.3056641-.2539063-5.7397461 3.6191406-6.421875 4.8369141h.4697265z"/><path d="m30.6889648 30.9790039s-.3364258 2.8764648 1.3110352 4.3110352c0 0-1.4414063 1.9033203-2.1933594 4.5498047l9.1816406-3.5019531v-6.6079102z" fill="url(#P)"/><path d="m29.8955078 40.0732422-.3295898-.3017578c.6313477-2.2207031 1.7236328-3.90625 2.1025391-4.4492188-1.5390625-1.5390625-1.2416992-4.253418-1.2280273-4.3720703l.2114258-.2182617 8.2993164-1.2490234.2871094.2470703v6.6079102l-.1611328.2333984zm1.0273438-8.8764649c-.0366211.6445313-.0512695 2.7788086 1.2412109 3.9047852l.0351563.3388672c-.0131836.0175781-1.2480469 1.6679688-2.0043945 3.9833984l8.543457-3.2578125v-6.1455078z"/><path d="m51.6191406 31.4223633 3.0019531 2.4467773s1.6972656 3.6767578 4.3134766 4.7246094v1.2460938l-5.5224609-3.9052734-3.2226563-2.9814453z" fill="url(#Q)"/><path d="m58.7900391 40.0439453-5.5224609-3.9052734-3.2480469-3.0019531-.0126953-.3540039 1.4296875-1.5307617.3408203-.0234375 3.0703125 2.5361328c.0166016.0351563 1.6875 3.5986328 4.1796875 4.5966797l.1572266.2324219v1.2460938zm-8.2460938-7.1035156 3.0380859 2.8105469 5.1025391 3.6064453v-.5976563c-2.4462891-1.0859375-4.0410156-4.2636719-4.265625-4.7324219l-2.7763672-2.2636719z"/><path d="m11.5913086 38.59375 2.4980469-1.0478516s6.6879883 11.0400391 23.4487305 1.53125l.8867188-2.578125-5.8017579 2.0947266s3.6269531-8.8637695 15.4716797-11.7646484l1.2890625-.8056641 3.3837891.402832.9677734 1.2084961-.4033203 3.9487305s-7.65625 4.7543945-9.0253906 5.0766602l-2.8203125 2.3369141-3.3037109 1.3955078s-1.8535156 1.5742188-1.7724609 2.546875l-.1611328 1.6171875-1.7724609.9667969-3.9487305.5644531s-2.0141602-.7255859-3.3842773.4833984l-5.7211914 1.2089844h-2.8203125c-.0000002-.0000001-1.7729494-3.7070313-7.0107424-9.1865235z" fill="url(#R)"/><path d="m21.4223633 48.0302734h-2.8203125l-.2255859-.1416016c-.0175781-.0371094-1.8227539-3.7421875-6.9658203-9.1220703l.0839844-.4033203 2.4980469-1.0478516.3105469.1005859c.0317383.0527344 3.2939453 5.2734375 10.7446289 5.2734375 3.7036133 0 7.8359375-1.2724609 12.2841797-3.7832031l.6865234-1.9951172-5.3105469 1.9179688-.3164063-.3300781c.0366211-.0898438 3.8037109-8.9956055 15.6044922-11.9033203l1.2548828-.7841797.1621094-.0361328 3.3837891.402832.1660156.0917969.9677734 1.2084961.0537109.1816406-.4033203 3.9487305-.1171875.1870117c-.3095703.1923828-7.5087891 4.6572266-9.0400391 5.0917969l-2.8398438 2.3398438-3.2685547 1.3798828c-.6796875.5849609-1.7070313 1.7060547-1.65625 2.3115234l-.1611328 1.6621094-.1289063.1953125-1.8574219.9941406-3.9487305.5644531-.1196289-.0117188c-.0053711-.0019531-.5717773-.2011719-1.2822266-.2011719-.75 0-1.3735352.2138672-1.8520508.6367188l-.1137695.0566406zm-2.6669922-.5h2.640625l5.6328125-1.1904297c.5654297-.4765625 1.2822266-.7177734 2.1323242-.7177734.6669922 0 1.2109375.1533203 1.3896484.2099609l3.8457031-.5498047 1.6171875-.8818359.1474609-1.4853516c-.0888672-1.0244141 1.6601563-2.5429688 1.859375-2.7128906l.0644531-.0400391 3.2705078-1.3808594 2.8935547-2.3642578c1.0380859-.2441406 6.1787109-3.3271484 8.8466797-4.980957l.3808594-3.7250977-.8398438-1.0483398-3.1953125-.3803711-1.2871094.7895508c-9.90625 2.4262695-14.0302734 9.1303711-15.0410156 11.0795898l5.2265625-1.8876953.3212891.3164063-.8867188 2.578125-.1132813.1367188c-4.5556641 2.5839844-8.7993164 3.8945313-12.6132813 3.8945313-6.9365234 0-10.3847656-4.3818359-11.0512695-5.3330078l-1.9746094.828125c4.4594729 4.7167968 6.3559573 8.1240234 6.7333987 8.845703z"/><path d="m21.2416992 15.7260742s-1.512207-3.0786133-.6254883-4.4487305 1.7729492-.402832 1.7729492-.402832 2.4980469 1.53125-.4833984 3.1425781l-.0463867 1.2084961z" fill="url(#S)"/><path d="m21.3989258 15.9204102-.3818359-.0839844c-.0639648-.1308594-1.5634766-3.2226563-.6108398-4.6948242.3642578-.5629883.784668-.8486328 1.2495117-.8486328.4594727 0 .7963867.293457.8911133.3857422.1757813.1147461 1.0966797.7592773 1.0717773 1.6777344-.0180664.6582031-.5117188 1.2670898-1.4682617 1.8110352l-.0410156 1.0678711-.0927734.1845703zm.2568359-5.1274414c-.2841797 0-.5634766.2084961-.8295898.6201172-.5986328.9248047.0737305 2.9287109.5073242 3.9165039l.2802734-.2270508.0419922-1.0952148.1313477-.2099609c.8569336-.4633789 1.3173828-.9658203 1.331543-1.453125.0205078-.7041016-.8515625-1.2514648-.8603516-1.2568359l-.0537109-.0439453c-.0009766-.001465-.2387696-.2504884-.5488282-.2504884z"/><path d="m29.3383789 31.5996094-.1000977-.78125s.5644531-1.894043 1.53125-2.2163086 7.9580078-1.5727539 9.328125-2.378418 5.7402344-2.2954102 6.9492188-2.2954102 1.2900391 2.0146484 1.0478516 2.0952148-1.3339844 1.1689453-1.3339844 1.1689453-3.8447266 1.9228516-7.0429688 3.5512695-9.5737304 1.4335939-10.3793945.8559572z" fill="url(#T)"/><path d="m32.6650391 32.2680664c-1.3647461 0-2.9936523-.1220703-3.472168-.465332l-.1025391-.1713867-.1000977-.78125.0083008-.1030273c.0615234-.206543.6323242-2.0288086 1.6918945-2.3823242.324707-.1079102 1.2607422-.3081055 2.4453125-.5615234 2.3662109-.5053711 5.9414063-1.2695313 6.8349609-1.7949219 1.3994141-.8232422 5.7929688-2.3300781 7.0761719-2.3300781.8339844 0 1.2558594.7709961 1.3720703 1.4921875.0371094.2246094.1259766.9667969-.2451172 1.090332-.1367188.0605469-.75.6230469-1.2363281 1.1088867l-.0644531.0463867c-.0009766 0-3.8447266 1.9223633-7.0419922 3.550293-2.3720702 1.2080077-6.0849608 1.3017577-7.1660155 1.3017577zm-3.0947266-.824707c.3769531.1650391 1.5151367.324707 3.0947266.324707 2.8115234 0 5.4052734-.4663086 6.9394531-1.2470703 3.0185547-1.5371094 6.6123047-3.3359375 7.0087891-3.5341797.3876953-.3862305 1.0185547-.9912109 1.3212891-1.1625977.0507813-.1865234.0273438-.8168945-.25-1.2587891-.1630859-.2607422-.3710938-.387207-.6376953-.387207-1.1679688 0-5.5322266 1.5019531-6.8222656 2.2607422-.9638672.5668945-4.4433594 1.3105469-6.984375 1.8535156-1.1230469.2402344-2.09375.4472656-2.3916016.546875-.6699219.2231445-1.1899414 1.4746094-1.3554688 2.0004883z"/><path d="m51.9179688 26.0473633c-.1787109 0-.3310547-.1357422-.3486328-.3173828-.0175781-.1923828.1230469-.362793.3154297-.3813477l7.0166016-.6630859c.2050781-.0253906.3623047.1230469.3818359.315918.0175781.1923828-.1230469.362793-.3154297.3813477l-7.0166016.6630859c-.0117188.0009765-.022461.0014648-.0332031.0014648z"/><path d="m38.4248047 36.1865234s3.7666016-5.2089844 15.2285156-8.5517578l-.4003906 3.8095703-8.9785156 4.8974609-2.8046875 2.2539063s-3.8466797.6210938-3.0449219-2.4091797z" fill="url(#V)"/><path d="m7.8041992 35.9345703s5.8823242-5.237793 8.7026367-6.2045898l2.0146484-2.9008789 1.2890625-.6445313-2.3369141 4.4316406s-4.6733398 3.1425781-4.512207 5.8017578l-1.3701171 2.1757813s-1.9335938-2.6591797-3.7871094-2.6591797z" fill="url(#W)"/><path d="m23.3691406 19.8188477-2.0273438-.7255859s-.402832 1.2089844 0 1.6118164c0 0 1.8793945.4833984 2.0273438.402832s1.2539063-.8403321 0-1.2890625z" fill="url(#X)"/><path d="m23.3056641 21.3671875c-.3833008-.0004883-1.8588867-.3769531-2.0263672-.4199219l-.1142578-.0654297c-.4873047-.4873047-.1357422-1.6411133-.0605469-1.8676758l.3217773-.15625 2.0273438.7255859c.4765625.1704102.7304688.418457.7553711.7363281.0444336.5742188-.7124023 1.003418-.7202148 1.0078125-.0644532.0346681-.1313477.0395509-.1831055.0395509zm-1.8217774-.8837891c.5996094.1523438 1.5405273.371582 1.8022461.3833008.1542969-.0981445.4365234-.3481445.4243164-.5083008-.0078125-.0976563-.1665039-.2114258-.4257813-.3041992l-1.7758789-.6357422c-.0952148.3867188-.1464843.8637696-.0249023 1.0649414z"/><path d="m9.7993164 31.6894531s1.5556641-.2490234 2.3613281-.3706055l.7006836.4038086-4.9570313 2.4394531z" fill="#fff"/><path d="m8.0146484 34.3867188-.3085938-.3769531 1.8950195-2.472168.1586914-.0952148s1.5571289-.2490234 2.3637695-.3706055l.1621094.0302734.7006836.4038086-.0146484.440918zm1.9223633-2.4663086-1.184082 1.5454102 3.5776367-1.7607422-.21875-.1259766c-.6958008.105957-1.8354492.2871093-2.1748047.3413086z"/><path d="m53.6533203 27.7348633s-2.0341797.2382813-4.796875 1.6655273l-.2539063.7114258 2.3261719-.2817383 2.4541016.3818359z" fill="#fff"/><path d="m53.3447266 30.4589844-2.4199219-.3764648-2.2919922.2773438-.265625-.3320313.2539063-.7114258.1210938-.1381836c2.7705078-1.4316406 4.796875-1.6816406 4.8818359-1.6918945l.2773438.2758789-.2705078 2.4770508zm-2.4462891-.8769531.0683594.0009766 2.1962891.3417969.2060547-1.8896484c-.6572266.1240234-2.2851563.5087891-4.3105469 1.5424805l-.0849609.2373047z"/><path d="m50.6230469 29.0742188-.0996094.1552734 2.3867188.3583984.2089843-1.1523437z" fill="#e00012"/><path d="m14.7084961 39.4902344s3.449707 4.046875 10.0981445 4.1806641c7.9863281.1611328 12.5878906-3.4941406 12.5878906-3.4941406l-1.5673828 1.2988281s-3.3266602 2.8525391-12.3720703 2.8076172c-5.4794922-.0273438-10.1933594-5.734375-10.1933594-5.734375z" fill="url(#Z)" opacity=".4"/><path d="m42.1318359 40.703125s2.7402344-5.7089844 11.6035156-3.1435547l-1.8173828 3.5244141s-5.6777344-1.5615234-8.4169922 1.7617188z" fill="url(#aa)"/><path d="m43.5009766 43.0957031c-.0048828 0-.0097656 0-.0146484 0-.0800781-.0048828-.1533203-.0478516-.1962891-.1152344l-1.3691406-2.1425781c-.0458985-.0732422-.0517579-.165039-.0146485-.243164.0195313-.0390625 1.9599609-3.9482422 7.5478516-3.9482422 1.3447266 0 2.8085938.2265625 4.3505859.6728516.0722656.0205078.1308594.0722656.1601563.1416016.0292969.0683594.0273438.1464844-.0068359.2128906l-1.8173828 3.5244141c-.0546875.1054688-.1748047.1572266-.2890625.1269531-.0126953-.0039063-1.3232422-.3574219-2.9521484-.3574219-1.6083984 0-3.8173828.3535156-5.2050781 2.0371094-.0478517.0576171-.1191408.0908202-.1933595.0908202zm-1.0791016-2.4033203 1.1113281 1.7392578c1.2070313-1.2871094 3.0537109-1.9638672 5.3662109-1.9638672 1.3408203 0 2.4501953.2236328 2.8867188.3261719l1.5869141-3.0761719c-1.3896484-.3789063-2.7060547-.5712891-3.9189453-.5712891-4.7304688.0000001-6.6689453 2.9160157-7.0322266 3.5458985z"/><path d="m44.1455078 41.0839844.5644531-2.4355469h7.1113282l1.2978515 3.5625-.5546875.5478516z" fill="url(#ab)"/><path d="m52.5644531 43.0087891c-.0166016 0-.0322266-.0019531-.0488281-.0048828l-8.4189453-1.6748047c-.0664063-.0126953-.1240234-.0527344-.1611328-.109375s-.0488281-.1259766-.0332031-.1923828l.5644531-2.4355469c.0263672-.1132813.1269531-.1933594.2431641-.1933594h7.1113281c.1054688 0 .1992188.0654297.2353516.1640625l1.2978516 3.5625c.0332031.0917969.0097656.1953125-.0595703.2636719l-.5546875.5478516c-.0468751.0468749-.1103517.0722656-.1757814.0722656zm-8.1171875-2.1201172 8.0361328 1.5986328.3457031-.3417969-1.1826172-3.2470703h-6.7382813z"/><path d="m37.8603516 43.3046875c.2587891-2.3681641 2.9824219-1.4560547 4.7548828-1.3505859s3.8359375.5371094 5.9873047.8046875 2.5029297 3.9736328.0302734 4.2158203l-8.8378906-1.4101563s-2.1767578-.0478515-1.9345703-2.2597656z" fill="url(#ac)"/><path d="m48.6328125 47.2246094c-.0136719 0-.0263672-.0009766-.0390625-.0029297l-8.8378906-1.4101563c-.0009766 0-.0019531 0-.0029297 0-.0585938 0-1.0507813-.0478516-1.6738281-.7587891-.390625-.4443359-.5478516-1.0419922-.4667969-1.7753906.2001953-1.8330078 1.8056641-1.8330078 2.3330078-1.8330078.5283203 0 1.0878906.0732422 1.6289063.1445313.3701172.0488281.7294922.0966797 1.0556641.1152344 1.0976563.0654297 2.2929688.2529297 3.5595703.4511719.7939453.1240234 1.6123047.2519531 2.4443359.3554688 1.2988281.1611328 1.9853516 1.4208984 1.9707031 2.5234375-.015625 1.2158203-.7802734 2.0751953-1.9472656 2.1894531-.0078125.0009765-.0166016.0009765-.0244141.0009765zm-8.6875-5.2802735c-1.1806641 0-1.7304688.4150391-1.8369141 1.3876953-.0634766.5859375.0517578 1.0537109.34375 1.3886719.4921875.5644531 1.3408203.59375 1.3486328.59375l8.8388672 1.4082031c1.0644531-.1191406 1.4550781-.9511719 1.4648438-1.6953125.0117188-.8857422-.5214844-1.8945313-1.5332031-2.0205078-.8369141-.1044922-1.6601563-.2324219-2.4589844-.3574219-1.2539063-.1962891-2.4384766-.3818359-3.5117188-.4453125-.3378906-.0205078-.7089844-.0693359-1.0917969-.1191406-.5253906-.0693359-1.0683593-.140625-1.5634765-.140625z"/><path d="m38.7216797 43.3046875s-.2158203-1.3017578 2.2011719-1.0722656c0 0-1.9042969.5449219-2.2011719 1.0722656z" fill="#838383"/><path d="m42.4541016 43.6708984 2.8203125.3212891s.2412109-.7314453 2.9003906-.6875c0 0-1.9345703-.8740234-3.2236328.0898438l-2.8193359-.3193359z" fill="#838383"/><path d="m35.75 35.6308594s.9326172-3.2783203 12.4248047-7.9960938l1.3613281-.8056641s-1.6386719 1.7368164-3.2001953 2.1826172c-4.2041016 1.2001954-10.5859375 6.6191407-10.5859375 6.6191407z" fill="url(#ad)"/></svg>