<svg viewBox="0 0 48 48" xmlns="http://www.w3.org/2000/svg"><g fill="#424242"><path d="m24 34a3 3 0 0 0 -3 3v4a3 3 0 0 0 6 0v-4a3 3 0 0 0 -3-3zm1 7a1 1 0 0 1 -2 0v-4a1 1 0 0 1 2 0z"/><path d="m17 35v3h-2v-3a1 1 0 0 0 -2 0v4a1 1 0 0 0 1 1h3v3a1 1 0 0 0 2 0v-8a1 1 0 0 0 -2 0z"/><path d="m33 35v3h-2v-3a1 1 0 0 0 -2 0v4a1 1 0 0 0 1 1h3v3a1 1 0 0 0 2 0v-8a1 1 0 0 0 -2 0z"/><path d="m44 0h-40a4 4 0 0 0 -4 4v40a4 4 0 0 0 4 4h40a4 4 0 0 0 4-4v-40a4 4 0 0 0 -4-4zm-40 2h40a2 2 0 0 1 2 2v4h-44v-4a2 2 0 0 1 2-2zm40 44h-40a2 2 0 0 1 -2-2v-34h44v34a2 2 0 0 1 -2 2z"/><path d="m43 6h-10a1 1 0 0 1 0-2h10a1 1 0 0 1 0 2z"/></g><path d="m6 5a1 1 0 0 1 -2 0 1 1 0 0 1 2 0z" fill="#42a5f5"/><path d="m10 5a1 1 0 0 1 -2 0 1 1 0 0 1 2 0z" fill="#42a5f5"/><path d="m14 5a1 1 0 0 1 -2 0 1 1 0 0 1 2 0z" fill="#42a5f5"/><path d="m32.59 26-6.24-11.59a2.66 2.66 0 0 0 -4.7 0l-6.24 11.59a3.4 3.4 0 0 0 3 5h11.19a3.4 3.4 0 0 0 2.99-5zm-5.88-.7a1 1 0 0 1 -.71 1.7c-.55 0-.69-.27-2-1.59-1.23 1.23-1.44 1.59-2 1.59a1 1 0 0 1 -.71-1.71l1.3-1.29-1.3-1.29a1 1 0 0 1 1.42-1.42l1.29 1.3 1.29-1.3a1 1 0 0 1 1.42 1.42l-1.3 1.29z" fill="#42a5f5"/></svg>