<svg height="32" viewBox="0 0 32 32" width="32" xmlns="http://www.w3.org/2000/svg"><path d="m26 16c-.0879 0-.1731.0093-.26.0132l-1.5032-7.0132h3.7632v-2h-5a1 1 0 0 0 -.978 1.21l.598 2.79h-10.2328l-1-3h2.6128v-2h-7v2h2.28l1.0411 3.123-2.57 5.1392a6 6 0 1 0 4.1589 6.7378h2.61a1.991 1.991 0 0 0 1.5616-.75l7.0584-8.8242.6436 3.0039a5.9891 5.9891 0 1 0 2.2164-.4297zm-20 10a4 4 0 1 1 .8364-7.9092l-1.7309 3.4619.009.0044a.9834.9834 0 0 0 -.1145.4429.9931.9931 0 0 0 1.8853.4429l.0092.0044 1.7237-3.4473a3.9835 3.9835 0 0 1 -2.6182 7zm5.91-5a5.9986 5.9986 0 0 0 -2.3733-3.8364l1.6787-3.3574 2.3976 7.1938zm3.4577-1.06-2.3137-6.94h7.8654zm10.6323 6.06a3.9882 3.9882 0 0 1 -1.7859-7.56l.8079 3.77.02-.0044a.9859.9859 0 0 0 .958.7944 1 1 0 0 0 1-1 .9456.9456 0 0 0 -.0415-.2056l.02-.0044-.8086-3.7729a3.9931 3.9931 0 0 1 -.1699 7.9829z"/><path d="m0 0h32v32h-32z" fill="none"/></svg>