<svg fill="none" height="120" viewBox="0 0 120 120" width="120" xmlns="http://www.w3.org/2000/svg"><path d="m45.3 97.5h-29.5v-36.2c0-1.7 1.3-3 3-3h26.5z" fill="#eaeaea"/><path d="m74.7 97.5h-29.4v-53.5c0-1.7 1.3-3 3-3h23.5001c1.7 0 3 1.3 3 3v53.5z" fill="#f7f7f7"/><path d="m104.2 97.5h-29.4999v-29.5h26.4999c1.7 0 3 1.3 3 3z" fill="#eaeaea"/><g fill="#ffc54d"><path d="m12.9 100.7h94.3c.8 0 1.5-.7 1.5-1.5v-3.2c0-.8-.7-1.5-1.5-1.5h-94.3c-.8 0-1.5.7-1.5 1.5v3.2c0 .8.6 1.5 1.5 1.5z"/><path d="m66.2 30.4c1.8-.3 3.2-1 4.3-2.1 2-2.4 1.7-5.7 1.7-5.8l-.1-.5h-3.8c0-.9-.1-1.8-.3-2.6h-16.1c-.1.8-.2 1.7-.3 2.6h-3.8l-.1.5c0 .1-.4 3.5 1.7 5.8 1 1.2 2.5 1.9 4.3 2.1 1.3 2.3 3 4 4.4 4.9v2.1h-4.3c-.6 0-1.1.5-1.1 1.1v2.5h14.5v-2.4c0-.6-.5-1.1-1.1-1.1h-4.3v-2.1c1.4-1 3.1-2.8 4.4-5zm3.5-2.8c-.7.8-1.7 1.4-2.9 1.7.9-1.9 1.5-4 1.5-6.3h2.8c.1.9-.1 3-1.4 4.6zm-19.4 0c-1.3-1.6-1.5-3.7-1.4-4.6h2.8c0 2.3.6 4.4 1.5 6.3-1.2-.4-2.2-.9-2.9-1.7z"/></g></svg>